<svg version="1.1" xmlns="http://www.w3.org/2000/svg" width="53" height="53">
	<path xmlns="http://www.w3.org/2000/svg" fill="#3589a7" d="M15.996 8.282s.392-7.754.587-8.074c0-.007-7.232-.261-8.84.37C4.33 1.916 2.66 5.229 2.554 9.76c-.107 4.53.14 9.507.14 9.507C2.796 21.443.823 22.101 0 21.982c.49.057-.03 7.886.174 8.018.023.361 2.688-.14 2.663 2.685-.014 1.7.428 11.661.424 13.36-.008 3.487 2.818 5.178 5.137 5.683 2.322.504 4.32.53 7.957-.218.134-.563-.36-8.255-.36-8.255s-3.138.269-3.24.284c-4.917-.074-.758-10.645-2.33-15.431-.322-.98-1.318-2.135-1.318-2.135s1.35-.298 1.35-3.423c0-1.976-.448-10.767.566-12.515.193-1.842 4.973-1.753 4.973-1.753zm-7.148 4.193c0 3.618.017 7.6-.016 9.563-.066 3.939-2.73 3.637-2.73 3.637s3.128.993 3.128 4.187c0 3.027-.224 8.642-.224 12.428 0 4.316 5.597 2.85 5.43 2.74.137-.168.257 4.37.232 4.653-2.658.922-7.966.504-9.293-3.86-.732-2.408-.9-15.203-.836-15.449-.632-.701-2.416-1.81-2.577-2.094l-.133-4.33s2.905-.78 3.009-4.241c.104-3.461-.306-13.093.479-14.535 2.192-3.568 7.031-2.504 9.354-2.7.018.098-.283 3.166-.053 3.562-5.698-.16-5.77 3.02-5.77 6.439zm43.243 9.355c-.823.12-2.796-.538-2.693-2.714 0 0 .247-4.977.14-9.508-.106-4.53-1.776-7.843-5.189-9.182-1.608-.63-8.84-.377-8.84-.37.195.32.587 8.075.587 8.075s4.78-.09 4.973 1.753c1.014 1.748.566 10.538.566 12.515 0 3.125 1.35 3.423 1.35 3.423s-.995 1.154-1.318 2.134c-1.572 4.787 2.588 15.358-2.33 15.432-.102-.016-3.241-.285-3.241-.285s-.494 7.693-.36 8.256c3.639.748 5.636.722 7.957.217 2.32-.504 5.146-2.196 5.138-5.682-.004-1.7.438-11.661.423-13.36-.025-2.825 2.64-2.324 2.663-2.685.205-.133-.314-7.96.174-8.019zm-1.963 6.299c-.16.284-1.944 1.393-2.576 2.094.063.247-.104 13.041-.836 15.448-1.327 4.365-6.635 4.783-9.294 3.86-.024-.282.096-4.82.233-4.652-.167.11 5.43 1.575 5.43-2.74 0-3.786-.224-9.401-.224-12.427 0-3.196 3.127-4.188 3.127-4.188s-2.663.301-2.73-3.636c-.032-1.965-.015-5.946-.015-9.564 0-3.42-.072-6.599-5.769-6.44.23-.395-.071-3.463-.053-3.56 2.322.194 7.161-.869 9.353 2.7.786 1.442.375 11.074.479 14.534.103 3.462 3.007 4.24 3.007 4.24l-.132 4.33zm-18.192-4.875c.337-.057-12.202.128-12.106-.025.146.02-.137 12.418.124 12.104.054.239 5.922.293 6.062.004.021 1.725-.229 3.632-1.466 4.95-.748.757-3.986 1.279-3.986 1.279l.255 2.9c12.072.05 11.236-5.644 11.205-8.86.052-.187-.071-12.406-.088-12.352zm-6.458 18.72c1.331-1.174 1.904-2.273 2.22-4.098.111-.637-.13-4.255-.13-4.255-.056-.085-5.948-.07-5.948-.07.071-.263.124-8.454.296-8.481-.027-.044 8.192.007 8.089.106 0 0-.014 6.705.018 9.461.047 4.032.127 6.854-4.545 7.337zm6.589-34.499c-.236.108-12.416.054-12.163.114-.226-.104-.033 12.222-.05 12.196-.106.012 12.046.11 12.445-.119-.252.154-.291-11.929-.232-12.191zM30.051 17.82c.002.023-8.28-.066-8.426-.062.262.065.19-8.297.053-8.286-.054.035 8.408-.007 8.492-.009.07.03.014 8.442-.119 8.357z"/>
</svg>